<svg aria-roledescription="flowchart-v2" role="graphics-document document" viewBox="0 0 2874.849853515625 788" style="max-width: 2874.849853515625px;" class="flowchart" xmlns="http://www.w3.org/2000/svg" width="100%" id="mermaidSvgId"><style>#mermaidSvgId{font-family:"trebuchet ms",verdana,arial,sans-serif;font-size:16px;fill:#000000;}#mermaidSvgId .error-icon{fill:#552222;}#mermaidSvgId .error-text{fill:#552222;stroke:#552222;}#mermaidSvgId .edge-thickness-normal{stroke-width:1px;}#mermaidSvgId .edge-thickness-thick{stroke-width:3.5px;}#mermaidSvgId .edge-pattern-solid{stroke-dasharray:0;}#mermaidSvgId .edge-thickness-invisible{stroke-width:0;fill:none;}#mermaidSvgId .edge-pattern-dashed{stroke-dasharray:3;}#mermaidSvgId .edge-pattern-dotted{stroke-dasharray:2;}#mermaidSvgId .marker{fill:#666;stroke:#666;}#mermaidSvgId .marker.cross{stroke:#666;}#mermaidSvgId svg{font-family:"trebuchet ms",verdana,arial,sans-serif;font-size:16px;}#mermaidSvgId p{margin:0;}#mermaidSvgId .label{font-family:"trebuchet ms",verdana,arial,sans-serif;color:#000000;}#mermaidSvgId .cluster-label text{fill:#333;}#mermaidSvgId .cluster-label span{color:#333;}#mermaidSvgId .cluster-label span p{background-color:transparent;}#mermaidSvgId .label text,#mermaidSvgId span{fill:#000000;color:#000000;}#mermaidSvgId .node rect,#mermaidSvgId .node circle,#mermaidSvgId .node ellipse,#mermaidSvgId .node polygon,#mermaidSvgId .node path{fill:#eee;stroke:#999;stroke-width:1px;}#mermaidSvgId .rough-node .label text,#mermaidSvgId .node .label text,#mermaidSvgId .image-shape .label,#mermaidSvgId .icon-shape .label{text-anchor:middle;}#mermaidSvgId .node .katex path{fill:#000;stroke:#000;stroke-width:1px;}#mermaidSvgId .rough-node .label,#mermaidSvgId .node .label,#mermaidSvgId .image-shape .label,#mermaidSvgId .icon-shape .label{text-align:center;}#mermaidSvgId .node.clickable{cursor:pointer;}#mermaidSvgId .root .anchor path{fill:#666!important;stroke-width:0;stroke:#666;}#mermaidSvgId .arrowheadPath{fill:#333333;}#mermaidSvgId .edgePath .path{stroke:#666;stroke-width:2.0px;}#mermaidSvgId .flowchart-link{stroke:#666;fill:none;}#mermaidSvgId .edgeLabel{background-color:white;text-align:center;}#mermaidSvgId .edgeLabel p{background-color:white;}#mermaidSvgId .edgeLabel rect{opacity:0.5;background-color:white;fill:white;}#mermaidSvgId .labelBkg{background-color:rgba(255, 255, 255, 0.5);}#mermaidSvgId .cluster rect{fill:hsl(0, 0%, 98.9215686275%);stroke:#707070;stroke-width:1px;}#mermaidSvgId .cluster text{fill:#333;}#mermaidSvgId .cluster span{color:#333;}#mermaidSvgId div.mermaidTooltip{position:absolute;text-align:center;max-width:200px;padding:2px;font-family:"trebuchet ms",verdana,arial,sans-serif;font-size:12px;background:hsl(-160, 0%, 93.3333333333%);border:1px solid #707070;border-radius:2px;pointer-events:none;z-index:100;}#mermaidSvgId .flowchartTitleText{text-anchor:middle;font-size:18px;fill:#000000;}#mermaidSvgId rect.text{fill:none;stroke-width:0;}#mermaidSvgId .icon-shape,#mermaidSvgId .image-shape{background-color:white;text-align:center;}#mermaidSvgId .icon-shape p,#mermaidSvgId .image-shape p{background-color:white;padding:2px;}#mermaidSvgId .icon-shape rect,#mermaidSvgId .image-shape rect{opacity:0.5;background-color:white;fill:white;}#mermaidSvgId :root{--mermaid-font-family:"trebuchet ms",verdana,arial,sans-serif;}#mermaidSvgId .implemented rect{fill:#98FB98!important;stroke:#333!important;stroke-width:2px!important;}#mermaidSvgId .implemented polygon{fill:#98FB98!important;stroke:#333!important;stroke-width:2px!important;}#mermaidSvgId .implemented ellipse{fill:#98FB98!important;stroke:#333!important;stroke-width:2px!important;}#mermaidSvgId .implemented circle{fill:#98FB98!important;stroke:#333!important;stroke-width:2px!important;}#mermaidSvgId .implemented path{fill:#98FB98!important;stroke:#333!important;stroke-width:2px!important;}#mermaidSvgId .inProgress rect{fill:#FFA07A!important;stroke:#333!important;stroke-width:2px!important;}#mermaidSvgId .inProgress polygon{fill:#FFA07A!important;stroke:#333!important;stroke-width:2px!important;}#mermaidSvgId .inProgress ellipse{fill:#FFA07A!important;stroke:#333!important;stroke-width:2px!important;}#mermaidSvgId .inProgress circle{fill:#FFA07A!important;stroke:#333!important;stroke-width:2px!important;}#mermaidSvgId .inProgress path{fill:#FFA07A!important;stroke:#333!important;stroke-width:2px!important;}#mermaidSvgId .planned rect{fill:#D3D3D3!important;stroke:#333!important;stroke-width:2px!important;}#mermaidSvgId .planned polygon{fill:#D3D3D3!important;stroke:#333!important;stroke-width:2px!important;}#mermaidSvgId .planned ellipse{fill:#D3D3D3!important;stroke:#333!important;stroke-width:2px!important;}#mermaidSvgId .planned circle{fill:#D3D3D3!important;stroke:#333!important;stroke-width:2px!important;}#mermaidSvgId .planned path{fill:#D3D3D3!important;stroke:#333!important;stroke-width:2px!important;}</style><g><marker orient="auto" markerHeight="8" markerWidth="8" markerUnits="userSpaceOnUse" refY="5" refX="5" viewBox="0 0 10 10" class="marker flowchart-v2" id="mermaidSvgId_flowchart-v2-pointEnd"><path style="stroke-width: 1px; stroke-dasharray: 1px, 0px;" class="arrowMarkerPath" d="M 0 0 L 10 5 L 0 10 z"></path></marker><marker orient="auto" markerHeight="8" markerWidth="8" markerUnits="userSpaceOnUse" refY="5" refX="4.5" viewBox="0 0 10 10" class="marker flowchart-v2" id="mermaidSvgId_flowchart-v2-pointStart"><path style="stroke-width: 1px; stroke-dasharray: 1px, 0px;" class="arrowMarkerPath" d="M 0 5 L 10 10 L 10 0 z"></path></marker><marker orient="auto" markerHeight="11" markerWidth="11" markerUnits="userSpaceOnUse" refY="5" refX="11" viewBox="0 0 10 10" class="marker flowchart-v2" id="mermaidSvgId_flowchart-v2-circleEnd"><circle style="stroke-width: 1px; stroke-dasharray: 1px, 0px;" class="arrowMarkerPath" r="5" cy="5" cx="5"></circle></marker><marker orient="auto" markerHeight="11" markerWidth="11" markerUnits="userSpaceOnUse" refY="5" refX="-1" viewBox="0 0 10 10" class="marker flowchart-v2" id="mermaidSvgId_flowchart-v2-circleStart"><circle style="stroke-width: 1px; stroke-dasharray: 1px, 0px;" class="arrowMarkerPath" r="5" cy="5" cx="5"></circle></marker><marker orient="auto" markerHeight="11" markerWidth="11" markerUnits="userSpaceOnUse" refY="5.2" refX="12" viewBox="0 0 11 11" class="marker cross flowchart-v2" id="mermaidSvgId_flowchart-v2-crossEnd"><path style="stroke-width: 2px; stroke-dasharray: 1px, 0px;" class="arrowMarkerPath" d="M 1,1 l 9,9 M 10,1 l -9,9"></path></marker><marker orient="auto" markerHeight="11" markerWidth="11" markerUnits="userSpaceOnUse" refY="5.2" refX="-1" viewBox="0 0 11 11" class="marker cross flowchart-v2" id="mermaidSvgId_flowchart-v2-crossStart"><path style="stroke-width: 2px; stroke-dasharray: 1px, 0px;" class="arrowMarkerPath" d="M 1,1 l 9,9 M 10,1 l -9,9"></path></marker><g class="root"><g class="clusters"><g data-look="classic" id="Memory_Allocators" class="cluster"><rect height="99.5" width="799.0166778564453" y="680.5" x="2067.8333129882812" style=""></rect><g transform="translate(2398.4249877929688, 680.5)" class="cluster-label"><g><rect style="stroke: none" class="background"></rect><text style="" y="-10.1"><tspan dy="1.1em" y="-0.1em" x="0" class="text-outer-tspan"><tspan font-weight="normal" class="text-inner-tspan" font-style="normal">Memory_Allocators</tspan></tspan></text></g></g></g><g data-look="classic" id="Device_Support" class="cluster"><rect height="99.5" width="648.4999847412109" y="132.5" x="8" style=""></rect><g transform="translate(275.5416603088379, 132.5)" class="cluster-label"><g><rect style="stroke: none" class="background"></rect><text style="" y="-10.1"><tspan dy="1.1em" y="-0.1em" x="0" class="text-outer-tspan"><tspan font-weight="normal" class="text-inner-tspan" font-style="normal">Device_Support</tspan></tspan></text></g></g></g><g data-look="classic" id="Kernel_Core" class="cluster"><rect height="498" width="1473.625" y="132.5" x="1372.6166381835938" style=""></rect><g transform="translate(2064.754138946533, 132.5)" class="cluster-label"><g><rect style="stroke: none" class="background"></rect><text style="" y="-10.1"><tspan dy="1.1em" y="-0.1em" x="0" class="text-outer-tspan"><tspan font-weight="normal" class="text-inner-tspan" font-style="normal">Kernel_Core</tspan></tspan></text></g></g></g><g data-look="classic" id="Hardware" class="cluster"><rect height="772" width="676.1166534423828" y="8" x="676.4999847412109" style=""></rect><g transform="translate(978.9333114624023, 8)" class="cluster-label"><g><rect style="stroke: none" class="background"></rect><text style="" y="-10.1"><tspan dy="1.1em" y="-0.1em" x="0" class="text-outer-tspan"><tspan font-weight="normal" class="text-inner-tspan" font-style="normal">Hardware</tspan></tspan></text></g></g></g><g data-look="classic" id="Interrupts" class="cluster"><rect height="199" width="512.9666748046875" y="406.5" x="1392.6166381835938" style=""></rect><g transform="translate(1612.491641998291, 406.5)" class="cluster-label"><g><rect style="stroke: none" class="background"></rect><text style="" y="-10.1"><tspan dy="1.1em" y="-0.1em" x="0" class="text-outer-tspan"><tspan font-weight="normal" class="text-inner-tspan" font-style="normal">Interrupts</tspan></tspan></text></g></g></g><g data-look="classic" id="Memory_Management" class="cluster"><rect height="323.5" width="744.6499938964844" y="282" x="2081.5916442871094" style=""></rect><g transform="translate(2375.3083114624023, 282)" class="cluster-label"><g><rect style="stroke: none" class="background"></rect><text style="" y="-10.1"><tspan dy="1.1em" y="-0.1em" x="0" class="text-outer-tspan"><tspan font-weight="normal" class="text-inner-tspan" font-style="normal">Memory_Management</tspan></tspan></text></g></g></g></g><g class="edgePaths"><path marker-end="url(#mermaidSvgId_flowchart-v2-pointEnd)" style="" class="edge-thickness-normal edge-pattern-solid edge-thickness-normal edge-pattern-solid flowchart-link" id="L_A_G_0" d="M1014.558,82.5L1014.558,86.667C1014.558,90.833,1014.558,99.167,1014.558,107.5C1014.558,115.833,1014.558,124.167,1173.588,136.028C1332.618,147.889,1650.678,163.277,1809.708,170.972L1968.738,178.666"></path><path marker-end="url(#mermaidSvgId_flowchart-v2-pointEnd)" style="" class="edge-thickness-normal edge-pattern-solid edge-thickness-normal edge-pattern-solid flowchart-link" id="L_G_H_1" d="M1987.567,207L1978.265,211.167C1968.964,215.333,1950.361,223.667,1941.06,232C1931.758,240.333,1931.758,248.667,1931.758,257C1931.758,265.333,1931.758,273.667,1931.758,281.333C1931.758,289,1931.758,296,1931.758,299.5L1931.758,303"></path><path marker-end="url(#mermaidSvgId_flowchart-v2-pointEnd)" style="" class="edge-thickness-normal edge-pattern-solid edge-thickness-normal edge-pattern-solid flowchart-link" id="L_G_I_2" d="M1972.733,190.966L1917.744,197.805C1862.756,204.644,1752.778,218.322,1697.789,229.328C1642.8,240.333,1642.8,248.667,1642.8,257C1642.8,265.333,1642.8,273.667,1642.8,281.333C1642.8,289,1642.8,296,1642.8,299.5L1642.8,303"></path><path marker-end="url(#mermaidSvgId_flowchart-v2-pointEnd)" style="" class="edge-thickness-normal edge-pattern-solid edge-thickness-normal edge-pattern-solid flowchart-link" id="L_G_J_3" d="M2112.9,190.545L2171.274,197.454C2229.647,204.363,2346.394,218.182,2404.768,229.258C2463.142,240.333,2463.142,248.667,2463.142,257C2463.142,265.333,2463.142,273.667,2463.142,281.333C2463.142,289,2463.142,296,2463.142,299.5L2463.142,303"></path><path marker-end="url(#mermaidSvgId_flowchart-v2-pointEnd)" style="" class="edge-thickness-normal edge-pattern-solid edge-thickness-normal edge-pattern-solid flowchart-link" id="L_J_B_4" d="M2343.892,351.9L2314.696,356.833C2285.5,361.767,2227.108,371.633,2197.912,380.733C2168.717,389.833,2168.717,398.167,1992.002,409.951C1815.288,421.735,1461.859,436.969,1285.144,444.586L1108.43,452.204"></path><path marker-end="url(#mermaidSvgId_flowchart-v2-pointEnd)" style="" class="edge-thickness-normal edge-pattern-solid edge-thickness-normal edge-pattern-solid flowchart-link" id="L_J_K_5" d="M2468.117,356.5L2468.954,360.667C2469.792,364.833,2471.467,373.167,2472.304,381.5C2473.142,389.833,2473.142,398.167,2473.142,405.833C2473.142,413.5,2473.142,420.5,2473.142,424L2473.142,427.5"></path><path marker-end="url(#mermaidSvgId_flowchart-v2-pointEnd)" style="" class="edge-thickness-normal edge-pattern-solid edge-thickness-normal edge-pattern-solid flowchart-link" id="L_K_L_6" d="M2473.142,481L2473.142,485.167C2473.142,489.333,2473.142,497.667,2473.142,505.333C2473.142,513,2473.142,520,2473.142,523.5L2473.142,527"></path><path marker-end="url(#mermaidSvgId_flowchart-v2-pointEnd)" style="" class="edge-thickness-normal edge-pattern-solid edge-thickness-normal edge-pattern-solid flowchart-link" id="L_L_T_7" d="M2376.008,572.74L2344.793,578.2C2313.578,583.66,2251.147,594.58,2219.932,604.207C2188.717,613.833,2188.717,622.167,2188.717,630.5C2188.717,638.833,2188.717,647.167,2188.717,655.5C2188.717,663.833,2188.717,672.167,2188.717,679.833C2188.717,687.5,2188.717,694.5,2188.717,698L2188.717,701.5"></path><path marker-end="url(#mermaidSvgId_flowchart-v2-pointEnd)" style="" class="edge-thickness-normal edge-pattern-solid edge-thickness-normal edge-pattern-solid flowchart-link" id="L_L_U_8" d="M2451.285,580.5L2447.606,584.667C2443.926,588.833,2436.567,597.167,2432.888,605.5C2429.208,613.833,2429.208,622.167,2429.208,630.5C2429.208,638.833,2429.208,647.167,2429.208,655.5C2429.208,663.833,2429.208,672.167,2429.208,679.833C2429.208,687.5,2429.208,694.5,2429.208,698L2429.208,701.5"></path><path marker-end="url(#mermaidSvgId_flowchart-v2-pointEnd)" style="" class="edge-thickness-normal edge-pattern-solid edge-thickness-normal edge-pattern-solid flowchart-link" id="L_L_V_9" d="M2570.275,576.34L2593.201,581.2C2616.128,586.06,2661.981,595.78,2684.907,604.807C2707.833,613.833,2707.833,622.167,2707.833,630.5C2707.833,638.833,2707.833,647.167,2707.833,655.5C2707.833,663.833,2707.833,672.167,2707.833,679.833C2707.833,687.5,2707.833,694.5,2707.833,698L2707.833,701.5"></path><path marker-end="url(#mermaidSvgId_flowchart-v2-pointEnd)" style="" class="edge-thickness-normal edge-pattern-solid edge-thickness-normal edge-pattern-solid flowchart-link" id="L_I_O_10" d="M1642.8,356.5L1642.8,360.667C1642.8,364.833,1642.8,373.167,1642.8,381.5C1642.8,389.833,1642.8,398.167,1642.8,405.833C1642.8,413.5,1642.8,420.5,1642.8,424L1642.8,427.5"></path><path marker-end="url(#mermaidSvgId_flowchart-v2-pointEnd)" style="" class="edge-thickness-normal edge-pattern-solid edge-thickness-normal edge-pattern-solid flowchart-link" id="L_O_P_11" d="M1698.05,481L1707.351,485.167C1716.653,489.333,1735.256,497.667,1744.557,505.333C1753.858,513,1753.858,520,1753.858,523.5L1753.858,527"></path><path marker-end="url(#mermaidSvgId_flowchart-v2-pointEnd)" style="" class="edge-thickness-normal edge-pattern-solid edge-thickness-normal edge-pattern-solid flowchart-link" id="L_O_N_12" d="M1580.403,481L1569.898,485.167C1559.393,489.333,1538.384,497.667,1527.88,505.333C1517.375,513,1517.375,520,1517.375,523.5L1517.375,527"></path><path marker-end="url(#mermaidSvgId_flowchart-v2-pointEnd)" style="" class="edge-thickness-normal edge-pattern-solid edge-thickness-normal edge-pattern-solid flowchart-link" id="L_N_F_13" d="M1517.375,580.5L1517.375,584.667C1517.375,588.833,1517.375,597.167,1517.375,605.5C1517.375,613.833,1517.375,622.167,1427.185,630.5C1336.996,638.833,1156.617,647.167,1066.427,655.5C976.237,663.833,976.237,672.167,979.04,679.972C981.843,687.777,987.448,695.054,990.251,698.693L993.053,702.331"></path><path marker-end="url(#mermaidSvgId_flowchart-v2-pointEnd)" style="" class="edge-thickness-normal edge-pattern-solid edge-thickness-normal edge-pattern-solid flowchart-link" id="L_Q_C_14" d="M113.542,207L113.542,211.167C113.542,215.333,113.542,223.667,227.011,232C340.481,240.333,567.419,248.667,680.889,257C794.358,265.333,794.358,273.667,794.358,281.333C794.358,289,794.358,296,794.358,299.5L794.358,303"></path><path marker-end="url(#mermaidSvgId_flowchart-v2-pointEnd)" style="" class="edge-thickness-normal edge-pattern-solid edge-thickness-normal edge-pattern-solid flowchart-link" id="L_S_D_15" d="M328.792,207L328.792,211.167C328.792,215.333,328.792,223.667,442.41,232C556.028,240.333,783.264,248.667,896.882,257C1010.5,265.333,1010.5,273.667,1010.5,281.333C1010.5,289,1010.5,296,1010.5,299.5L1010.5,303"></path><path marker-end="url(#mermaidSvgId_flowchart-v2-pointEnd)" style="" class="edge-thickness-normal edge-pattern-solid edge-thickness-normal edge-pattern-solid flowchart-link" id="L_R_E_16" d="M547.5,207L547.5,211.167C547.5,215.333,547.5,223.667,661.367,232C775.233,240.333,1002.967,248.667,1116.833,257C1230.7,265.333,1230.7,273.667,1230.7,281.333C1230.7,289,1230.7,296,1230.7,299.5L1230.7,303"></path><path marker-end="url(#mermaidSvgId_flowchart-v2-pointEnd)" style="" class="edge-thickness-normal edge-pattern-solid edge-thickness-normal edge-pattern-solid flowchart-link" id="L_D_O_17" d="M1010.5,356.5L1010.5,360.667C1010.5,364.833,1010.5,373.167,1010.5,381.5C1010.5,389.833,1010.5,398.167,1099.57,409.341C1188.64,420.516,1366.78,434.533,1455.851,441.541L1544.921,448.549"></path><path marker-end="url(#mermaidSvgId_flowchart-v2-pointEnd)" style="" class="edge-thickness-normal edge-pattern-solid edge-thickness-normal edge-pattern-solid flowchart-link" id="L_F_O_18" d="M1033.622,705.5L1036.832,701.333C1040.041,697.167,1046.46,688.833,1049.67,680.5C1052.879,672.167,1052.879,663.833,1191.663,655.5C1330.447,647.167,1608.015,638.833,1746.799,630.5C1885.583,622.167,1885.583,613.833,1885.583,601.375C1885.583,588.917,1885.583,572.333,1885.583,555.75C1885.583,539.167,1885.583,522.583,1861.421,509.34C1837.259,496.098,1788.935,486.195,1764.772,481.244L1740.61,476.293"></path></g><g class="edgeLabels"><g><rect style="stroke: none" class="background"></rect></g><g><rect style="stroke: none" class="background"></rect></g><g><rect style="stroke: none" class="background"></rect></g><g><rect style="stroke: none" class="background"></rect></g><g><rect style="stroke: none" class="background"></rect></g><g><rect style="stroke: none" class="background"></rect></g><g><rect style="stroke: none" class="background"></rect></g><g><rect style="stroke: none" class="background"></rect></g><g><rect style="stroke: none" class="background"></rect></g><g><rect style="stroke: none" class="background"></rect></g><g><rect style="stroke: none" class="background"></rect></g><g><rect style="stroke: none" class="background"></rect></g><g><rect style="stroke: none" class="background"></rect></g><g><rect style="stroke: none" class="background"></rect></g><g><rect style="stroke: none" class="background"></rect></g><g><rect style="stroke: none" class="background"></rect></g><g><rect style="stroke: none" class="background"></rect></g><g><rect style="stroke: none" class="background"></rect></g><g><rect style="stroke: none" class="background"></rect></g><g class="edgeLabel"><g transform="translate(0, 0)" class="label"><text y="-10.1"><tspan dy="1.1em" y="-0.1em" x="0" class="text-outer-tspan"></tspan></text></g></g><g class="edgeLabel"><g transform="translate(0, 0)" class="label"><text y="-10.1"><tspan dy="1.1em" y="-0.1em" x="0" class="text-outer-tspan"></tspan></text></g></g><g class="edgeLabel"><g transform="translate(0, 0)" class="label"><text y="-10.1"><tspan dy="1.1em" y="-0.1em" x="0" class="text-outer-tspan"></tspan></text></g></g><g class="edgeLabel"><g transform="translate(0, 0)" class="label"><text y="-10.1"><tspan dy="1.1em" y="-0.1em" x="0" class="text-outer-tspan"></tspan></text></g></g><g class="edgeLabel"><g transform="translate(0, 0)" class="label"><text y="-10.1"><tspan dy="1.1em" y="-0.1em" x="0" class="text-outer-tspan"></tspan></text></g></g><g class="edgeLabel"><g transform="translate(0, 0)" class="label"><text y="-10.1"><tspan dy="1.1em" y="-0.1em" x="0" class="text-outer-tspan"></tspan></text></g></g><g class="edgeLabel"><g transform="translate(0, 0)" class="label"><text y="-10.1"><tspan dy="1.1em" y="-0.1em" x="0" class="text-outer-tspan"></tspan></text></g></g><g class="edgeLabel"><g transform="translate(0, 0)" class="label"><text y="-10.1"><tspan dy="1.1em" y="-0.1em" x="0" class="text-outer-tspan"></tspan></text></g></g><g class="edgeLabel"><g transform="translate(0, 0)" class="label"><text y="-10.1"><tspan dy="1.1em" y="-0.1em" x="0" class="text-outer-tspan"></tspan></text></g></g><g class="edgeLabel"><g transform="translate(0, 0)" class="label"><text y="-10.1"><tspan dy="1.1em" y="-0.1em" x="0" class="text-outer-tspan"></tspan></text></g></g><g class="edgeLabel"><g transform="translate(0, 0)" class="label"><text y="-10.1"><tspan dy="1.1em" y="-0.1em" x="0" class="text-outer-tspan"></tspan></text></g></g><g class="edgeLabel"><g transform="translate(0, 0)" class="label"><text y="-10.1"><tspan dy="1.1em" y="-0.1em" x="0" class="text-outer-tspan"></tspan></text></g></g><g class="edgeLabel"><g transform="translate(0, 0)" class="label"><text y="-10.1"><tspan dy="1.1em" y="-0.1em" x="0" class="text-outer-tspan"></tspan></text></g></g><g class="edgeLabel"><g transform="translate(0, 0)" class="label"><text y="-10.1"><tspan dy="1.1em" y="-0.1em" x="0" class="text-outer-tspan"></tspan></text></g></g><g class="edgeLabel"><g transform="translate(0, 0)" class="label"><text y="-10.1"><tspan dy="1.1em" y="-0.1em" x="0" class="text-outer-tspan"></tspan></text></g></g><g class="edgeLabel"><g transform="translate(0, 0)" class="label"><text y="-10.1"><tspan dy="1.1em" y="-0.1em" x="0" class="text-outer-tspan"></tspan></text></g></g><g class="edgeLabel"><g transform="translate(0, 0)" class="label"><text y="-10.1"><tspan dy="1.1em" y="-0.1em" x="0" class="text-outer-tspan"></tspan></text></g></g><g class="edgeLabel"><g transform="translate(0, 0)" class="label"><text y="-10.1"><tspan dy="1.1em" y="-0.1em" x="0" class="text-outer-tspan"></tspan></text></g></g><g class="edgeLabel"><g transform="translate(0, 0)" class="label"><text y="-10.1"><tspan dy="1.1em" y="-0.1em" x="0" class="text-outer-tspan"></tspan></text></g></g></g><g class="nodes"><g transform="translate(1014.5583114624023, 57.75)" id="flowchart-A-2212" class="node default implemented"><rect height="49.5" width="90.86666679382324" y="-24.75" x="-45.43333339691162" style="fill:#98FB98 !important;stroke:#333 !important;stroke-width:2px !important" class="basic label-container"></rect><g transform="translate(0, -9.75)" style="" class="label"><rect></rect><g><rect style="stroke: none" class="background"></rect><text style="" y="-10.1"><tspan dy="1.1em" y="-0.1em" x="0" class="text-outer-tspan"><tspan font-weight="normal" class="text-inner-tspan" font-style="normal">CPU</tspan></tspan></text></g></g></g><g transform="translate(1014.5583114624023, 456.25)" id="flowchart-B-2213" class="node default implemented"><rect height="49.5" width="179.75" y="-24.75" x="-89.875" style="fill:#98FB98 !important;stroke:#333 !important;stroke-width:2px !important" class="basic label-container"></rect><g transform="translate(0, -9.75)" style="" class="label"><rect></rect><g><rect style="stroke: none" class="background"></rect><text style="" y="-10.1"><tspan dy="1.1em" y="-0.1em" x="0" class="text-outer-tspan"><tspan font-weight="normal" class="text-inner-tspan" font-style="normal">Physical</tspan><tspan font-weight="normal" class="text-inner-tspan" font-style="normal"> Memory</tspan></tspan></text></g></g></g><g transform="translate(794.3583145141602, 331.75)" id="flowchart-C-2214" class="node default implemented"><rect height="49.5" width="165.71665954589844" y="-24.75" x="-82.85832977294922" style="fill:#98FB98 !important;stroke:#333 !important;stroke-width:2px !important" class="basic label-container"></rect><g transform="translate(0, -9.75)" style="" class="label"><rect></rect><g><rect style="stroke: none" class="background"></rect><text style="" y="-10.1"><tspan dy="1.1em" y="-0.1em" x="0" class="text-outer-tspan"><tspan font-weight="normal" class="text-inner-tspan" font-style="normal">VGA</tspan><tspan font-weight="normal" class="text-inner-tspan" font-style="normal"> Hardware</tspan></tspan></text></g></g></g><g transform="translate(1010.4999771118164, 331.75)" id="flowchart-D-2215" class="node default implemented"><rect height="49.5" width="166.56666564941406" y="-24.75" x="-83.28333282470703" style="fill:#98FB98 !important;stroke:#333 !important;stroke-width:2px !important" class="basic label-container"></rect><g transform="translate(0, -9.75)" style="" class="label"><rect></rect><g><rect style="stroke: none" class="background"></rect><text style="" y="-10.1"><tspan dy="1.1em" y="-0.1em" x="0" class="text-outer-tspan"><tspan font-weight="normal" class="text-inner-tspan" font-style="normal">PS/2</tspan><tspan font-weight="normal" class="text-inner-tspan" font-style="normal"> Keyboard</tspan></tspan></text></g></g></g><g transform="translate(1230.6999740600586, 331.75)" id="flowchart-E-2216" class="node default implemented"><rect height="49.5" width="173.8333282470703" y="-24.75" x="-86.91666412353516" style="fill:#98FB98 !important;stroke:#333 !important;stroke-width:2px !important" class="basic label-container"></rect><g transform="translate(0, -9.75)" style="" class="label"><rect></rect><g><rect style="stroke: none" class="background"></rect><text style="" y="-10.1"><tspan dy="1.1em" y="-0.1em" x="0" class="text-outer-tspan"><tspan font-weight="normal" class="text-inner-tspan" font-style="normal">UART</tspan><tspan font-weight="normal" class="text-inner-tspan" font-style="normal"> Hardware</tspan></tspan></text></g></g></g><g transform="translate(1014.5583114624023, 730.25)" id="flowchart-F-2217" class="node default implemented"><rect height="49.5" width="123.28333282470703" y="-24.75" x="-61.641666412353516" style="fill:#98FB98 !important;stroke:#333 !important;stroke-width:2px !important" class="basic label-container"></rect><g transform="translate(0, -9.75)" style="" class="label"><rect></rect><g><rect style="stroke: none" class="background"></rect><text style="" y="-10.1"><tspan dy="1.1em" y="-0.1em" x="0" class="text-outer-tspan"><tspan font-weight="normal" class="text-inner-tspan" font-style="normal">8259</tspan><tspan font-weight="normal" class="text-inner-tspan" font-style="normal"> PIC</tspan></tspan></text></g></g></g><g transform="translate(2042.8166427612305, 182.25)" id="flowchart-G-2218" class="node default implemented"><rect height="49.5" width="140.16666412353516" y="-24.75" x="-70.08333206176758" style="fill:#98FB98 !important;stroke:#333 !important;stroke-width:2px !important" class="basic label-container"></rect><g transform="translate(0, -9.75)" style="" class="label"><rect></rect><g><rect style="stroke: none" class="background"></rect><text style="" y="-10.1"><tspan dy="1.1em" y="-0.1em" x="0" class="text-outer-tspan"><tspan font-weight="normal" class="text-inner-tspan" font-style="normal">Bootloader</tspan></tspan></text></g></g></g><g transform="translate(1931.7583084106445, 331.75)" id="flowchart-H-2219" class="node default implemented"><rect height="49.5" width="229.6666717529297" y="-24.75" x="-114.83333587646484" style="fill:#98FB98 !important;stroke:#333 !important;stroke-width:2px !important" class="basic label-container"></rect><g transform="translate(0, -9.75)" style="" class="label"><rect></rect><g><rect style="stroke: none" class="background"></rect><text style="" y="-10.1"><tspan dy="1.1em" y="-0.1em" x="0" class="text-outer-tspan"><tspan font-weight="normal" class="text-inner-tspan" font-style="normal">Global</tspan><tspan font-weight="normal" class="text-inner-tspan" font-style="normal"> Descriptor</tspan><tspan font-weight="normal" class="text-inner-tspan" font-style="normal"> Table</tspan></tspan></text></g></g></g><g transform="translate(1642.7999725341797, 331.75)" id="flowchart-I-2220" class="node default implemented"><rect height="49.5" width="248.25" y="-24.75" x="-124.125" style="fill:#98FB98 !important;stroke:#333 !important;stroke-width:2px !important" class="basic label-container"></rect><g transform="translate(0, -9.75)" style="" class="label"><rect></rect><g><rect style="stroke: none" class="background"></rect><text style="" y="-10.1"><tspan dy="1.1em" y="-0.1em" x="0" class="text-outer-tspan"><tspan font-weight="normal" class="text-inner-tspan" font-style="normal">Interrupt</tspan><tspan font-weight="normal" class="text-inner-tspan" font-style="normal"> Descriptor</tspan><tspan font-weight="normal" class="text-inner-tspan" font-style="normal"> Table</tspan></tspan></text></g></g></g><g transform="translate(2463.141647338867, 331.75)" id="flowchart-J-2221" class="node default implemented"><rect height="49.5" width="238.5" y="-24.75" x="-119.25" style="fill:#98FB98 !important;stroke:#333 !important;stroke-width:2px !important" class="basic label-container"></rect><g transform="translate(0, -9.75)" style="" class="label"><rect></rect><g><rect style="stroke: none" class="background"></rect><text style="" y="-10.1"><tspan dy="1.1em" y="-0.1em" x="0" class="text-outer-tspan"><tspan font-weight="normal" class="text-inner-tspan" font-style="normal">Physical</tspan><tspan font-weight="normal" class="text-inner-tspan" font-style="normal"> Frame</tspan><tspan font-weight="normal" class="text-inner-tspan" font-style="normal"> Allocator</tspan></tspan></text></g></g></g><g transform="translate(2473.141647338867, 456.25)" id="flowchart-K-2222" class="node default implemented"><rect height="49.5" width="194.11666870117188" y="-24.75" x="-97.05833435058594" style="fill:#98FB98 !important;stroke:#333 !important;stroke-width:2px !important" class="basic label-container"></rect><g transform="translate(0, -9.75)" style="" class="label"><rect></rect><g><rect style="stroke: none" class="background"></rect><text style="" y="-10.1"><tspan dy="1.1em" y="-0.1em" x="0" class="text-outer-tspan"><tspan font-weight="normal" class="text-inner-tspan" font-style="normal">Heap</tspan><tspan font-weight="normal" class="text-inner-tspan" font-style="normal"> Management</tspan></tspan></text></g></g></g><g transform="translate(2473.141647338867, 555.75)" id="flowchart-L-2223" class="node default implemented"><rect height="49.5" width="194.26666259765625" y="-24.75" x="-97.13333129882812" style="fill:#98FB98 !important;stroke:#333 !important;stroke-width:2px !important" class="basic label-container"></rect><g transform="translate(0, -9.75)" style="" class="label"><rect></rect><g><rect style="stroke: none" class="background"></rect><text style="" y="-10.1"><tspan dy="1.1em" y="-0.1em" x="0" class="text-outer-tspan"><tspan font-weight="normal" class="text-inner-tspan" font-style="normal">Memory</tspan><tspan font-weight="normal" class="text-inner-tspan" font-style="normal"> Allocators</tspan></tspan></text></g></g></g><g transform="translate(2705.7583084106445, 555.75)" id="flowchart-M-2224" class="node default implemented"><rect height="49.5" width="170.96665954589844" y="-24.75" x="-85.48332977294922" style="fill:#98FB98 !important;stroke:#333 !important;stroke-width:2px !important" class="basic label-container"></rect><g transform="translate(0, -9.75)" style="" class="label"><rect></rect><g><rect style="stroke: none" class="background"></rect><text style="" y="-10.1"><tspan dy="1.1em" y="-0.1em" x="0" class="text-outer-tspan"><tspan font-weight="normal" class="text-inner-tspan" font-style="normal">Virtual</tspan><tspan font-weight="normal" class="text-inner-tspan" font-style="normal"> Memory</tspan></tspan></text></g></g></g><g transform="translate(1517.3749694824219, 555.75)" id="flowchart-N-2225" class="node default implemented"><rect height="49.5" width="179.51666259765625" y="-24.75" x="-89.75833129882812" style="fill:#98FB98 !important;stroke:#333 !important;stroke-width:2px !important" class="basic label-container"></rect><g transform="translate(0, -9.75)" style="" class="label"><rect></rect><g><rect style="stroke: none" class="background"></rect><text style="" y="-10.1"><tspan dy="1.1em" y="-0.1em" x="0" class="text-outer-tspan"><tspan font-weight="normal" class="text-inner-tspan" font-style="normal">PIC8259</tspan><tspan font-weight="normal" class="text-inner-tspan" font-style="normal"> Handler</tspan></tspan></text></g></g></g><g transform="translate(1642.7999725341797, 456.25)" id="flowchart-O-2226" class="node default implemented"><rect height="49.5" width="187.78333282470703" y="-24.75" x="-93.89166641235352" style="fill:#98FB98 !important;stroke:#333 !important;stroke-width:2px !important" class="basic label-container"></rect><g transform="translate(0, -9.75)" style="" class="label"><rect></rect><g><rect style="stroke: none" class="background"></rect><text style="" y="-10.1"><tspan dy="1.1em" y="-0.1em" x="0" class="text-outer-tspan"><tspan font-weight="normal" class="text-inner-tspan" font-style="normal">Interrupt</tspan><tspan font-weight="normal" class="text-inner-tspan" font-style="normal"> Handler</tspan></tspan></text></g></g></g><g transform="translate(1753.8583068847656, 555.75)" id="flowchart-P-2227" class="node default implemented"><rect height="49.5" width="193.45001220703125" y="-24.75" x="-96.72500610351562" style="fill:#98FB98 !important;stroke:#333 !important;stroke-width:2px !important" class="basic label-container"></rect><g transform="translate(0, -9.75)" style="" class="label"><rect></rect><g><rect style="stroke: none" class="background"></rect><text style="" y="-10.1"><tspan dy="1.1em" y="-0.1em" x="0" class="text-outer-tspan"><tspan font-weight="normal" class="text-inner-tspan" font-style="normal">Exception</tspan><tspan font-weight="normal" class="text-inner-tspan" font-style="normal"> Handler</tspan></tspan></text></g></g></g><g transform="translate(113.54166412353516, 182.25)" id="flowchart-Q-2228" class="node default implemented"><rect height="49.5" width="141.08333587646484" y="-24.75" x="-70.54166793823242" style="fill:#98FB98 !important;stroke:#333 !important;stroke-width:2px !important" class="basic label-container"></rect><g transform="translate(0, -9.75)" style="" class="label"><rect></rect><g><rect style="stroke: none" class="background"></rect><text style="" y="-10.1"><tspan dy="1.1em" y="-0.1em" x="0" class="text-outer-tspan"><tspan font-weight="normal" class="text-inner-tspan" font-style="normal">VGA</tspan><tspan font-weight="normal" class="text-inner-tspan" font-style="normal"> Buffer</tspan></tspan></text></g></g></g><g transform="translate(547.4999847412109, 182.25)" id="flowchart-R-2229" class="node default implemented"><rect height="49.5" width="148" y="-24.75" x="-74" style="fill:#98FB98 !important;stroke:#333 !important;stroke-width:2px !important" class="basic label-container"></rect><g transform="translate(0, -9.75)" style="" class="label"><rect></rect><g><rect style="stroke: none" class="background"></rect><text style="" y="-10.1"><tspan dy="1.1em" y="-0.1em" x="0" class="text-outer-tspan"><tspan font-weight="normal" class="text-inner-tspan" font-style="normal">UART</tspan><tspan font-weight="normal" class="text-inner-tspan" font-style="normal"> Driver</tspan></tspan></text></g></g></g><g transform="translate(328.7916564941406, 182.25)" id="flowchart-S-2230" class="node default inProgress"><rect height="49.5" width="189.41665649414062" y="-24.75" x="-94.70832824707031" style="fill:#FFA07A !important;stroke:#333 !important;stroke-width:2px !important" class="basic label-container"></rect><g transform="translate(0, -9.75)" style="" class="label"><rect></rect><g><rect style="stroke: none" class="background"></rect><text style="" y="-10.1"><tspan dy="1.1em" y="-0.1em" x="0" class="text-outer-tspan"><tspan font-weight="normal" class="text-inner-tspan" font-style="normal">Keyboard</tspan><tspan font-weight="normal" class="text-inner-tspan" font-style="normal"> Handler</tspan></tspan></text></g></g></g><g transform="translate(2188.7166442871094, 730.25)" id="flowchart-T-2231" class="node default implemented"><rect height="49.5" width="171.76666259765625" y="-24.75" x="-85.88333129882812" style="fill:#98FB98 !important;stroke:#333 !important;stroke-width:2px !important" class="basic label-container"></rect><g transform="translate(0, -9.75)" style="" class="label"><rect></rect><g><rect style="stroke: none" class="background"></rect><text style="" y="-10.1"><tspan dy="1.1em" y="-0.1em" x="0" class="text-outer-tspan"><tspan font-weight="normal" class="text-inner-tspan" font-style="normal">Bump</tspan><tspan font-weight="normal" class="text-inner-tspan" font-style="normal"> Allocator</tspan></tspan></text></g></g></g><g transform="translate(2429.2083129882812, 730.25)" id="flowchart-U-2232" class="node default implemented"><rect height="49.5" width="209.2166748046875" y="-24.75" x="-104.60833740234375" style="fill:#98FB98 !important;stroke:#333 !important;stroke-width:2px !important" class="basic label-container"></rect><g transform="translate(0, -9.75)" style="" class="label"><rect></rect><g><rect style="stroke: none" class="background"></rect><text style="" y="-10.1"><tspan dy="1.1em" y="-0.1em" x="0" class="text-outer-tspan"><tspan font-weight="normal" class="text-inner-tspan" font-style="normal">Linked</tspan><tspan font-weight="normal" class="text-inner-tspan" font-style="normal"> List</tspan><tspan font-weight="normal" class="text-inner-tspan" font-style="normal"> Allocator</tspan></tspan></text></g></g></g><g transform="translate(2707.833320617676, 730.25)" id="flowchart-V-2233" class="node default implemented"><rect height="49.5" width="248.03334045410156" y="-24.75" x="-124.01667022705078" style="fill:#98FB98 !important;stroke:#333 !important;stroke-width:2px !important" class="basic label-container"></rect><g transform="translate(0, -9.75)" style="" class="label"><rect></rect><g><rect style="stroke: none" class="background"></rect><text style="" y="-10.1"><tspan dy="1.1em" y="-0.1em" x="0" class="text-outer-tspan"><tspan font-weight="normal" class="text-inner-tspan" font-style="normal">Fixed-Size</tspan><tspan font-weight="normal" class="text-inner-tspan" font-style="normal"> Block</tspan><tspan font-weight="normal" class="text-inner-tspan" font-style="normal"> Allocator</tspan></tspan></text></g></g></g></g></g></g></svg>